<svg viewBox="0 0 679 364" fill="currentColor" xmlns="http://www.w3.org/2000/svg" style="translate: none; rotate: none; scale: none; transform-origin: 272px 145.812px; transform: translate(0px, 0px); opacity: 1;"><path d="M7.3932 13.5474L2.22832 8.34803L4.83667 5.68786L10.0361 10.8527L15.3046 5.68786L17.9648 8.27893L12.6963 13.5474L17.8957 18.7814L15.3046 21.407L10.0361 16.2076L4.83667 21.3725L2.26287 18.7469L7.3932 13.5474Z" fill="currentColor" style="translate: none; rotate: none; scale: none; transform-origin: 0px 0px; opacity: 1;" data-svg-origin="10.096560001373291 13.54742956161499" transform="matrix(-0.86488,0.50197,-0.50197,-0.86488,25.62928,20.19616)"/><path d="M171.857 13.5474L166.692 8.34803L169.301 5.68786L174.5 10.8527L179.768 5.68786L182.429 8.27893L177.16 13.5474L182.36 18.7814L179.768 21.407L174.5 16.2076L169.301 21.3725L166.727 18.7469L171.857 13.5474Z" fill="currentColor" style="translate: none; rotate: none; scale: none; transform-origin: 0px 0px; opacity: 1;" data-svg-origin="174.5605010986328 13.54742956161499" transform="matrix(0.90294,0.42978,-0.42978,0.90294,22.76526,-73.7077)"/><path d="M336.322 13.5474L331.157 8.34803L333.765 5.68786L338.965 10.8527L344.233 5.68786L346.893 8.27893L341.625 13.5474L346.824 18.7814L344.233 21.407L338.965 16.2076L333.765 21.3725L331.192 18.7469L336.322 13.5474Z" fill="currentColor" style="translate: none; rotate: none; scale: none; transform-origin: 0px 0px; opacity: 1;" data-svg-origin="339.02500915527344 13.54742956161499" transform="matrix(1,0,0,1,0,0)"/><path d="M500.786 13.5474L495.621 8.34803L498.229 5.68786L503.429 10.8527L508.697 5.68786L511.357 8.27893L506.089 13.5474L511.288 18.7814L508.697 21.407L503.429 16.2076L498.229 21.3725L495.655 18.7469L500.786 13.5474Z" fill="currentColor" style="translate: none; rotate: none; scale: none; transform-origin: 0px 0px; opacity: 1;" data-svg-origin="503.48899841308594 13.54742956161499" transform="matrix(1,0,0,1,0,0)"/><path d="M665.25 13.5474L660.085 8.34803L662.693 5.68786L667.893 10.8527L673.161 5.68786L675.821 8.27893L670.553 13.5474L675.752 18.7814L673.161 21.407L667.893 16.2076L662.693 21.3725L660.119 18.7469L665.25 13.5474Z" fill="currentColor" style="translate: none; rotate: none; scale: none; transform-origin: 0px 0px; opacity: 1;" data-svg-origin="667.9530029296875 13.54742956161499" transform="matrix(1,0,0,1,0,0)"/><path d="M7.3932 182.813L2.22832 177.614L4.83667 174.953L10.0361 180.118L15.3046 174.953L17.9648 177.545L12.6963 182.813L17.8957 188.047L15.3046 190.673L10.0361 185.473L4.83667 190.638L2.26287 188.012L7.3932 182.813Z" fill="currentColor" style="translate: none; rotate: none; scale: none; transform-origin: 0px 0px; opacity: 1;" data-svg-origin="10.096560001373291 182.81300354003906" transform="matrix(1,0,0,1,0,0)"/><path d="M171.857 182.813L166.692 177.614L169.301 174.953L174.5 180.118L179.768 174.953L182.429 177.545L177.16 182.813L182.36 188.047L179.768 190.673L174.5 185.473L169.301 190.638L166.727 188.012L171.857 182.813Z" fill="currentColor" style="translate: none; rotate: none; scale: none; transform-origin: 0px 0px; opacity: 1;" data-svg-origin="174.5605010986328 182.81300354003906" transform="matrix(1,0,0,1,0,0)"/><path d="M336.322 182.813L331.157 177.614L333.765 174.953L338.965 180.118L344.233 174.953L346.893 177.545L341.625 182.813L346.824 188.047L344.233 190.673L338.965 185.473L333.765 190.638L331.192 188.012L336.322 182.813Z" fill="currentColor" style="translate: none; rotate: none; scale: none; transform-origin: 0px 0px; opacity: 1;" data-svg-origin="339.02500915527344 182.81300354003906" transform="matrix(1,0,0,1,0,0)"/><path d="M500.786 182.813L495.621 177.614L498.229 174.953L503.429 180.118L508.697 174.953L511.357 177.545L506.089 182.813L511.288 188.047L508.697 190.673L503.429 185.473L498.229 190.638L495.655 188.012L500.786 182.813Z" fill="currentColor" style="translate: none; rotate: none; scale: none; transform-origin: 0px 0px; opacity: 1;" data-svg-origin="503.48899841308594 182.81300354003906" transform="matrix(1,0,0,1,0,0)"/><path d="M665.25 182.813L660.085 177.614L662.693 174.953L667.893 180.118L673.161 174.953L675.821 177.545L670.553 182.813L675.752 188.047L673.161 190.673L667.893 185.473L662.693 190.638L660.119 188.012L665.25 182.813Z" fill="currentColor" style="translate: none; rotate: none; scale: none; transform-origin: 0px 0px; opacity: 1;" data-svg-origin="667.9530029296875 182.81300354003906" transform="matrix(1,0,0,1,0,0)"/><path d="M7.3932 352.079L2.22832 346.879L4.83667 344.219L10.0361 349.384L15.3046 344.219L17.9648 346.81L12.6963 352.079L17.8957 357.313L15.3046 359.938L10.0361 354.739L4.83667 359.904L2.26287 357.278L7.3932 352.079Z" fill="currentColor" style="translate: none; rotate: none; scale: none; transform-origin: 0px 0px; opacity: 1;" data-svg-origin="10.096560001373291 352.0784912109375" transform="matrix(1,0,0,1,0,0)"/><path d="M171.857 352.079L166.692 346.879L169.301 344.219L174.5 349.384L179.768 344.219L182.429 346.81L177.16 352.079L182.36 357.313L179.768 359.938L174.5 354.739L169.301 359.904L166.727 357.278L171.857 352.079Z" fill="currentColor" style="translate: none; rotate: none; scale: none; transform-origin: 0px 0px; opacity: 1;" data-svg-origin="174.5605010986328 352.0784912109375" transform="matrix(1,0,0,1,0,0)"/><path d="M336.322 352.079L331.157 346.879L333.765 344.219L338.965 349.384L344.233 344.219L346.893 346.81L341.625 352.079L346.824 357.313L344.233 359.938L338.965 354.739L333.765 359.904L331.192 357.278L336.322 352.079Z" fill="currentColor" style="translate: none; rotate: none; scale: none; transform-origin: 0px 0px; opacity: 1;" data-svg-origin="339.02500915527344 352.0784912109375" transform="matrix(1,0,0,1,0,0)"/><path d="M500.786 352.079L495.621 346.879L498.229 344.219L503.429 349.384L508.697 344.219L511.357 346.81L506.089 352.079L511.288 357.313L508.697 359.938L503.429 354.739L498.229 359.904L495.655 357.278L500.786 352.079Z" fill="currentColor" style="translate: none; rotate: none; scale: none; transform-origin: 0px 0px; opacity: 1;" data-svg-origin="503.48899841308594 352.0784912109375" transform="matrix(1,0,0,1,0,0)"/><path d="M665.25 352.079L660.085 346.879L662.693 344.219L667.893 349.384L673.161 344.219L675.821 346.81L670.553 352.079L675.752 357.313L673.161 359.938L667.893 354.739L662.693 359.904L660.119 357.278L665.25 352.079Z" fill="currentColor" style="translate: none; rotate: none; scale: none; transform-origin: 0px 0px; opacity: 1;" data-svg-origin="667.9530029296875 352.0784912109375" transform="matrix(1,0,0,1,0,0)"/></svg>